<svg xmlns="http://www.w3.org/2000/svg" width="68" height="158" viewBox="0 0 68 158">
  <defs>
    <style>
      .cls-1, .cls-4 {
        fill: #fff;
      }

      .cls-1, .cls-2, .cls-3, .cls-4, .cls-5, .cls-6, .cls-7 {
        fill-rule: evenodd;
      }

      .cls-2 {
        fill: #333;
      }

      .cls-3 {
        fill: #353535;
      }

      .cls-3, .cls-4 {
        fill-opacity: 0.99;
      }

      .cls-5 {
        fill: #e84d37;
      }

      .cls-6 {
        fill: #343434;
      }

      .cls-7 {
        fill: #f7f8f8;
      }
    </style>
  </defs>
  <path id="Лупа" class="cls-1" d="M13.155,10.747H12.4l-0.263-.261a6.217,6.217,0,1,0-.675.675l0.263,0.262v0.755l4.772,4.76,1.424-1.422Zm-5.731,0a4.291,4.291,0,1,1,4.3-4.291A4.294,4.294,0,0,1,7.424,10.747Z"/>
  <path id="Лупа-2" data-name="Лупа" class="cls-2" d="M41.155,10.747H40.4l-0.263-.261a6.214,6.214,0,1,0-.675.675l0.263,0.262v0.755l4.772,4.76,1.423-1.422Zm-5.731,0a4.291,4.291,0,1,1,4.3-4.291A4.294,4.294,0,0,1,35.424,10.747Z"/>
  <path id="Вход_copy" data-name="Вход copy" class="cls-3" d="M29,23.968v-0.96a3,3,0,0,1,3-3H43.059a3,3,0,0,1,3,3V35.985a3,3,0,0,1-3,3H32a3,3,0,0,1-3-3V35h2v2H44V22H31v1.969H29Zm-3,8.046h6.029v2.743l7.027-5.3-7.027-5.3V26.9H25.995v5.113Z"/>
  <path id="Вход" class="cls-4" d="M4,23.968v-0.96a3,3,0,0,1,3-3H18.059a3,3,0,0,1,3,3V35.986a3,3,0,0,1-3,3H7a3,3,0,0,1-3-3V35H6v2H19V22H6v1.968H4Zm-3,8.046H7.024v2.743l7.027-5.3-7.027-5.3V26.9H0.995v5.114Z"/>
  <path id="Корзина" class="cls-1" d="M21.576,49.46l-1.2,8.912a2.033,2.033,0,0,1-1.883,1.635H7.61a2.027,2.027,0,0,1-1.879-1.635L4.262,48.085a3.678,3.678,0,0,1-.137-1.055H2a1,1,0,0,1,0-2H6a1,1,0,0,1,1,1,0.99,0.99,0,0,1-.9.979H20.067C21.172,47.01,21.84,48.141,21.576,49.46ZM7.731,57.978l-1.313-9H19.625s-0.031.2-.031,0.2l-1.186,8.788c-0.008.011-.009,0.014,0,0.014H7.731Zm0.514,3.009a1.874,1.874,0,1,1-1.874,1.874A1.874,1.874,0,0,1,8.245,60.987Zm9,0a1.874,1.874,0,1,1-1.874,1.874A1.874,1.874,0,0,1,17.246,60.987Z"/>
  <path id="Корзина_заполнена" data-name="Корзина заполнена" class="cls-5" d="M30.5,48.375H45.625L44.25,58.625,31.625,58.5Z"/>
  <path id="Корзина-2" data-name="Корзина" class="cls-6" d="M46.576,49.46l-1.2,8.912a2.034,2.034,0,0,1-1.883,1.635H32.61a2.028,2.028,0,0,1-1.879-1.635L29.262,48.085a3.67,3.67,0,0,1-.137-1.054H27a1,1,0,1,1,0-2h4a1,1,0,0,1,1,1,0.99,0.99,0,0,1-.9.979H45.067C46.172,47.01,46.84,48.141,46.576,49.46ZM32.731,57.978l-1.313-9H44.624s-0.031.2-.031,0.2l-1.186,8.788c-0.008.011-.009,0.014,0,0.014H32.731Zm0.514,3.009a1.874,1.874,0,1,1-1.874,1.874A1.875,1.875,0,0,1,33.245,60.986Zm9,0a1.874,1.874,0,1,1-1.874,1.874A1.875,1.875,0,0,1,42.246,60.986Z"/>
  <path id="Сердце" class="cls-7" d="M8.606,157.732s7.285-3.6,7.285-8.224c0-5.126-5.5-5.936-7.3-1.705m0.049,9.929s-7.285-3.6-7.285-8.224c0-5.126,5.5-5.936,7.3-1.705"/>
  <path id="Твитер" class="cls-1" d="M16.427,70.165A15.692,15.692,0,1,1,.735,85.857,15.692,15.692,0,0,1,16.427,70.165Zm9.138,10.811a7.3,7.3,0,0,1-2.092.573,3.654,3.654,0,0,0,1.6-2.015,7.283,7.283,0,0,1-2.313.884,3.646,3.646,0,0,0-6.207,3.322,10.342,10.342,0,0,1-7.507-3.806A3.646,3.646,0,0,0,10.175,84.8a3.626,3.626,0,0,1-1.65-.455c0,0.015,0,.03,0,0.046a3.644,3.644,0,0,0,2.922,3.571,3.651,3.651,0,0,1-1.645.062,3.645,3.645,0,0,0,3.4,2.529,7.353,7.353,0,0,1-5.392,1.508,10.358,10.358,0,0,0,15.946-8.727q0-.237-0.011-0.471A7.406,7.406,0,0,0,25.565,80.976Z"/>
  <path id="Инста" class="cls-1" d="M50.865,70.228A15.692,15.692,0,1,1,35.173,85.919,15.692,15.692,0,0,1,50.865,70.228Zm6.272,23.61a1.745,1.745,0,0,0,1.745-1.745V79.782a1.745,1.745,0,0,0-1.745-1.745H44.809a1.745,1.745,0,0,0-1.745,1.745V92.093a1.745,1.745,0,0,0,1.745,1.745H57.136Zm-1.375-9.1a4.921,4.921,0,1,1-9.529,0h-1.38v6.786a0.611,0.611,0,0,0,.611.611H56.529a0.611,0.611,0,0,0,.611-0.611V84.737S56.644,84.739,55.761,84.737ZM51,83.132a2.847,2.847,0,1,1,0,5.677A2.838,2.838,0,0,1,51,83.132Zm3.7-3.316H56.56a0.611,0.611,0,0,1,.611.611v1.864a0.611,0.611,0,0,1-.611.611H54.7a0.611,0.611,0,0,1-.611-0.611V80.427A0.611,0.611,0,0,1,54.7,79.816Z"/>
  <path id="ФБ" class="cls-1" d="M16.865,105.228A15.692,15.692,0,1,1,1.173,120.919,15.691,15.691,0,0,1,16.865,105.228Zm0.774,24.989v-9.291h2.742l0.285-3.089H17.638l0-1.856c0-.894.084-1.256,1.367-1.256h1.764V111.3H17.982c-3.294,0-4.082,1.546-4.082,4.342v2.2H12.011v3.089H13.9v9.291h3.739Z"/>
  <path id="ВК" class="cls-1" d="M51.865,105.228a15.692,15.692,0,1,1-15.692,15.691A15.691,15.691,0,0,1,51.865,105.228Zm5.968,18.252a3.116,3.116,0,0,0-.758-2.2,3.7,3.7,0,0,0-2.016-1.082v-0.072a2.937,2.937,0,0,0,1.371-1.144,3.191,3.191,0,0,0,.5-1.77,3.106,3.106,0,0,0-.362-1.518,2.635,2.635,0,0,0-1.091-1.051,4.3,4.3,0,0,0-1.446-.476,16.218,16.218,0,0,0-2.269-.116h-4.8v13.6H52.4a8.838,8.838,0,0,0,2.332-.256,4.8,4.8,0,0,0,1.686-.857,3.637,3.637,0,0,0,1.032-1.268,3.941,3.941,0,0,0,.383-1.784h0ZM53.46,117.9a1.54,1.54,0,0,0-.168-0.677,1.014,1.014,0,0,0-.527-0.5,2.137,2.137,0,0,0-.8-0.162c-0.308-.009-0.767-0.012-1.374-0.012H50.355v2.877h0.43c0.583,0,.994-0.006,1.229-0.019a1.981,1.981,0,0,0,.726-0.19,1.11,1.11,0,0,0,.564-0.529,1.891,1.891,0,0,0,.156-0.786h0Zm0.857,5.522a1.648,1.648,0,0,0-.255-0.984,1.54,1.54,0,0,0-.767-0.539,2.54,2.54,0,0,0-.853-0.134c-0.362-.01-0.848-0.013-1.456-0.013h-0.63v3.4h0.184q1.332,0,1.842-.019a2.883,2.883,0,0,0,1.041-.246,1.359,1.359,0,0,0,.68-0.589A1.783,1.783,0,0,0,54.316,123.417Z"/>
</svg>
